<!DOCTYPE svg PUBLIC "-//W3C//DTD SVG 20010904//EN" "http://www.w3.org/TR/2001/REC-SVG-20010904/DTD/svg10.dtd">
<svg version="1.0" xmlns="http://www.w3.org/2000/svg" width="44px" height="65px" viewBox="0 0 440 650" preserveAspectRatio="xMidYMid meet">
<g id="layer101" fill="#ffffff" stroke="none">
 <path d="M87 636 c-22 -8 -50 -24 -63 -37 -23 -22 -24 -27 -24 -181 l0 -158 25 16 c22 15 25 23 25 81 0 75 12 103 44 103 29 0 43 -16 48 -55 3 -26 7 -30 39 -33 44 -4 49 8 49 111 0 53 3 67 15 67 12 0 15 -18 15 -105 0 -89 3 -106 18 -113 27 -15 42 -3 42 33 0 46 9 65 31 65 17 0 19 -8 19 -64 0 -63 1 -64 35 -85 l35 -20 0 159 c0 173 0 173 -63 207 -44 23 -236 29 -290 9z"/>
 <path d="M85 277 c-83 -28 -88 -33 -83 -93 6 -67 45 -128 103 -161 57 -32 173 -32 230 0 58 33 97 94 103 162 l4 55 -48 22 c-60 27 -244 36 -309 15z m244 -46 c11 -7 4 -11 -25 -17 -79 -15 -224 -3 -193 17 8 5 57 9 109 9 52 0 101 -4 109 -9z m-109 -111 c25 0 73 6 107 13 70 15 72 8 16 -45 -69 -65 -177 -65 -246 0 -56 53 -54 60 16 45 34 -7 82 -13 107 -13z"/>
 </g>

</svg>